<svg height="24" version="1.1" viewBox="0 0 280 225" xml:space="preserve" xmlns="http://www.w3.org/2000/svg" xmlns:xlink="http://www.w3.org/1999/xlink">
  <title>Layer 1</title>
  <path d="m89.9287,123.308l2.224,-7.938l2.213,7.938h-4.437l0,0zm94.92229,-43.7512h-4.243l1.02,1.023h4.24199l-1.019,-1.023zm-7.118,1.023v-1.54401l-6.082,-6.087l-4.547,4.568l-3.043,3.062h11.81599h1.856l0,0.00101zm22.48199,0l1.52,-1.511h6.37399l-4.01999,-4.037h-6.04401l-5.534,5.548h2.832h4.87199l0,0l0,0l0,0l0,0l0,0l0,0l0,0l0,0l0,0l0,0l0,0zm-162.6633,0h-5.42c13.287,-46.504 55.995,-80.57998 106.77631,-80.57998c50.743,0 93.452,34.07698 106.733,80.57998h-3.201c-5.41501,-18.295 -15.457,-34.614 -28.879,-47.464h-13.54201l-0.662,3.38l-3.049,2.018l-6.407,0.673l0.325,-4.059l-5.73399,-1.003l1.01999,-4.053l-8.79999,2.035l-4.709,8.11l-8.14801,6.093l-0.63499,7.737l8.10001,2.029l4.726,2.04l2.371,-2.365v-12.837h3.043v6.423h5.72499v6.738h-5.388v4.72h-13.504v4.742h-4.438l-6.039,-6.076v-4.059h-7.08v6.771v3.364l-1.89299,1.845l3.554,3.55901l4.41699,-4.395l3.34201,3.369l-1.86101,1.87199v2.539h-2.85899v6.253h-33.82101l-1.128,4.79301l-1.031,-4.79301h-15.901l3.423,-3.38799l1.53001,1.514l3.7,-3.706h-5.735v-3.049h4.058v-4.715h4.053v-11.485h-9.456v-2.045h-9.1483v16.563l-3.352,1.009l-2.729,-6.424l-8.073,-5.718l-4.736,-6.413l8.094,0.982l2.724,-4.368l-2.382,-2.729l-1.009,-3.38l10.151,-0.651l1.312,-7.107l-33.827,-0.314c-10.742,10.807 -19.168,23.893 -24.598,38.444v6.981l-0.003,0l0,0l0,0l0,0l0,0l0,0l0,0l0,0l0,0l0,0l0,0l0,0zm89.8823,-31.242l5.398,5.404l6.407,-6.418l12.29401,-12.337l5.09999,-5.073h5.903v-12.327v-8.77799h-7.76399v-5.56599c-5.17601,-0.776 -10.48201,-1.194 -15.864,-1.194c-1.26401,0 -2.474,0.076 -3.66701,0.12l-0.39099,0.895v8.45798h-6.76001v16.531h1.015h3.72701v6.418h-5.398v13.867l0,0l0,0l0,0l0,0l0,0l0,0l0,0l0,0l0,0l0,0l0,0l0,0zm-53.4293,-24.55l2.756,2.751h9.956l4.21,-4.232v-5.724h4.37801v9.771h6.7763v20.274h9.788v-28.044h-4.362h-8.4593v-6.049h6.0773l3.559,-3.55397l-2.002,-1.996c-11.9253,3.71697 -22.9433,9.46297 -32.6773,16.80297l0,0l0,0l0,0l0,0l0,0l0,0l0,0l0,0l0,0zm158.08929,117.3242l-2.614,10.688h-16.63499v8.32199h-7.573v14.36l-5.914,5.89301h-13.905v-12.761l-7.50301,-7.492v-18.55499l-2.875,10.23199h-33.12199v12.034h-9.12001l-4.74199,6.77101v15.181l-13.856,10.134v18.235l-15.5333,-14.15501v-37.196l-15.945,-14.946l-1.106,3.944h-33.822l-2.588,-10.67799l-2.609,10.67799h-6.706c16.487,40.71201 56.342,69.466 102.9833,69.466c46.60901,0 86.459,-28.754 102.94,-69.466h-7.16699l-2.58801,-10.689l0,0l0,0l0,0l0,0l0,0l0,0l0,0l0,0l0,0l0,0z" fill="#AAAAAA" id="svg_39"/>
  <path d="m88.2957,98.2808l2.626,-9.367h-7.503h-1.486h-9.907l-5.013,21.3302c-0.564,2.251 -1.08501,5.241 -1.552,8.946c-0.472,3.711 -0.803,6.809 -1.003,9.29399h-0.206c-0.032,-0.02299 -0.07,-0.049 -0.108,-0.07599c-0.401,-4.01501 -1.367,-9.61401 -2.892,-16.797l-4.812,-22.6972h-21.652l-0.835,3.56699l-4.427,18.8422c-1.736,8.431 -2.658,14.155 -2.756,17.161h-0.304c-0.233,-4.84 -1.085,-10.91599 -2.556,-18.23999l-4.611,-21.3302h-19.29796l15.48896,55.55319h20.6l5.762,-23.578c0.439,-1.823 1.183,-5.618 2.23,-11.358c0.331,-1.80099 0.688,-3.776 1.079,-5.957h0.304l0.998,6.424l0.597,3.145l0.911,4.85l6.413,26.476h20.952l2.186,-7.78499l9.636,-34.35801l1.138,-4.0452l0,0l0,0l0,0l0,0l0,0l0,0l0,0l0,0l0,0l0,0z" fill="#AAAAAA" id="svg_41"/>
  <path d="m180.586,102.323l3.76601,-13.40919h-7.509h-0.071h-11.32201l-5.013,21.3302c-0.564,2.251 -1.08499,5.241 -1.552,8.946c-0.467,3.711 -0.79799,6.809 -0.998,9.29399h-0.30499c-0.401,-4.02599 -1.37199,-9.647 -2.90201,-16.87299l-4.812,-22.6972h-8.72899h-12.92401l-5.268,22.41019c-1.573,7.65 -2.474,13.042 -2.696,16.22701c-0.022,0.325 -0.049,0.656 -0.055,0.934h-0.309c-0.011,-0.218 -0.038,-0.47301 -0.049,-0.694c-0.277,-4.731 -1.101,-10.553 -2.501,-17.546l-4.612,-21.3302h-11.795h-7.5093l3.744,13.4202l0.862,3.09l0.293,1.055l9.7393,34.92899l0.857,3.06h3.445h1.34h15.81001l5.767,-23.578c0.504,-2.132 1.438,-6.958 2.79401,-14.453c0.16299,-0.917 0.33099,-1.861 0.515,-2.86201h0.29999l0.44501,2.86201l0.55901,3.562l1.50299,7.994l6.412,26.476h20.953l10.856,-38.683l0.97099,-3.464l0,0l0,0l0,0l0,0l0,0l0,0l0,0l0,0l0,0l0,0l0,0z" fill="#AAAAAA" id="svg_42"/>
  <path d="m258.879,88.9128l-5.013,21.33019c-0.569,2.25101 -1.091,5.241 -1.552,8.94601c-0.472,3.711 -0.80299,6.809 -1.004,9.294h-0.304c-0.401,-4.026 -1.37199,-9.647 -2.90199,-16.873l-4.666,-22.0002l-0.146,-0.697h-21.65201l-5.26801,22.41019c-1.53999,7.482 -2.43599,12.82 -2.68599,16.03201c-0.032,0.40099 -0.054,0.792 -0.06401,1.12899h-0.31c-0.011,-0.25 -0.03799,-0.55399 -0.06,-0.80899c-0.282,-4.704 -1.09599,-10.493 -2.49001,-17.43201l-1.44299,-6.67899l-3.168,-14.6512h-11.789h-7.509l3.737,13.4202l4.726,16.927l4.666,16.759l2.36,8.44701h20.595l5.767,-23.578c0.386,-1.611 1.02,-4.796 1.88901,-9.481c0.41699,-2.265 0.884,-4.85 1.42101,-7.834h0.299l0.737,4.709l0.26599,1.714l1.50301,7.994l6.41901,26.47601h20.94699l15.59201,-55.5532h-18.89801l0,0l0,0l0,0l0,0l0,0l0,0l0,0l0,0l0,0l0,0z" fill="#AAAAAA" id="svg_43"/>
</svg>